:SAMPLES-PER-SECOND 30
:FULLY-SPECIFIED
:DEGREES
373
root  -7.78826 39.825 10.1498 -177.248 -56.5662 172.674
RightUpLeg  -2.81293 25.0341 -9.72535
RightLeg  46.9925 -1.8675 -2.46927
RightFoot  35.0587 -4.48424 11.0336
RightToes  -5.8209e-011 0 -3.6325e-017
Spine  -10.3226 2.41572 13.5365
Spine1  19.3146 0.736792 -1.20903
HEad  -4.76917 -26.3341 0.415338
LeftShoulder1  7.09335 -15.1463 -32.0094
LeftArm  6.74332 14.1437 -45.4165
LeftForeArm  34.6264 -66.7957 -23.2063
LeftHand  -0.246645 0.021 5.37786
RightShoulder  6.36468 14.1225 30.1323
RightArm  39.9181 19.3837 64.2864
RightForeArm  32.9858 57.7223 14.926
RightHand  -0.24729 -0.0210522 -5.37781
LeftUpLeg  -2.02878 2.65815 -5.41372
LeftLeg  16.8174 -38.4041 -12.5221
LeftFoot  -0.82249 -0.461233 5.06124
LeftToes  -7.45818e-011 -3.37383e-011 1.08613e-011
374
root  -7.75022 39.8349 10.2024 -178.153 -54.1649 173.334
RightUpLeg  -3.21235 25.0193 -10.1939
RightLeg  47.0241 -2.41485 -3.09927
RightFoot  33.9122 -4.15949 10.5477
RightToes  -5.8209e-011 0 -3.6325e-017
Spine  -9.42811 2.15045 12.657
Spine1  19.2713 0.43378 -0.622646
HEad  -4.50191 -26.4177 0.947209
LeftShoulder1  6.95987 -15.0185 -31.55
LeftArm  7.66161 13.8059 -45.4388
LeftForeArm  35.8588 -65.9066 -21.8825
LeftHand  -0.246645 0.021 5.37786
RightShoulder  6.36172 14.0668 30.2325
RightArm  37.9803 18.1093 62.4449
RightForeArm  31.847 58.2404 15.3844
RightHand  -0.24729 -0.0210522 -5.37781
LeftUpLeg  -1.67705 3.13005 -5.15921
LeftLeg  16.2458 -36.5791 -11.881
LeftFoot  -1.15488 -0.448952 5.1115
LeftToes  -7.45818e-011 -3.37383e-011 1.08613e-011
375
root  -7.71155 39.8444 10.266 -178.951 -51.6947 173.852
RightUpLeg  -3.56729 24.9148 -10.6976
RightLeg  46.9819 -2.95183 -3.70844
RightFoot  32.6523 -3.74608 9.83942
RightToes  -5.8209e-011 0 -3.6325e-017
Spine  -8.4926 1.84538 11.6957
Spine1  19.2834 0.0775588 0.00726327
HEad  -4.34708 -26.4404 1.57476
LeftShoulder1  6.87236 -14.8944 -31.3276
LeftArm  8.26891 13.6736 -45.0359
LeftForeArm  37.9091 -64.9775 -20.5187
LeftHand  -0.246645 0.021 5.37786
RightShoulder  6.35361 14.0071 30.3117
RightArm  36.078 16.762 60.3952
RightForeArm  31.3189 58.7683 15.8041
RightHand  -0.24729 -0.0210522 -5.37781
LeftUpLeg  -1.27406 3.54407 -4.94739
LeftLeg  15.6037 -34.6947 -11.2288
LeftFoot  -1.48711 -0.422335 5.00013
LeftToes  -7.45818e-011 -3.37383e-011 1.08613e-011
376
root  -7.6674 39.8548 10.3392 -179.608 -49.1914 174.281
RightUpLeg  -3.94437 24.7397 -11.2172
RightLeg  46.861 -3.47361 -4.28565
RightFoot  31.1907 -3.28368 8.99973
RightToes  -5.8209e-011 0 -3.6325e-017
Spine  -7.62134 1.46685 10.6417
Spine1  19.3746 -0.377017 0.642134
HEad  -4.28567 -26.3513 2.16118
LeftShoulder1  6.81505 -14.7825 -31.243
LeftArm  8.87327 13.8129 -44.3786
LeftForeArm  39.385 -64.1395 -19.4381
LeftHand  -0.246645 0.021 5.37786
RightShoulder  6.34377 13.9497 30.3765
RightArm  34.6515 15.647 58.277
RightForeArm  31.7991 59.1626 16.037
RightHand  -0.24729 -0.0210522 -5.37781
LeftUpLeg  -0.938132 3.85748 -4.77919
LeftLeg  14.9606 -32.6849 -10.5744
LeftFoot  -1.79823 -0.405395 4.98436
LeftToes  -7.45818e-011 -3.37383e-011 1.08613e-011
377
root  -7.61418 39.8638 10.4098 179.797 -46.5757 174.757
RightUpLeg  -4.36507 24.5498 -11.6913
RightLeg  46.6181 -3.96799 -4.80536
RightFoot  29.4552 -2.82695 8.15879
RightToes  -5.8209e-011 0 -3.6325e-017
Spine  -6.80258 1.11869 9.50685
Spine1  19.4727 -0.852233 1.33173
HEad  -4.14691 -26.1413 2.58733
LeftShoulder1  6.78578 -14.7282 -31.1935
LeftArm  9.4115 14.2984 -43.8208
LeftForeArm  39.7228 -63.355 -18.6259
LeftHand  -0.246645 0.021 5.37786
RightShoulder  6.32304 13.8747 30.4155
RightArm  33.8895 14.7763 56.1385
RightForeArm  32.4855 59.2776 16.0497
RightHand  -0.24729 -0.0210522 -5.37781
LeftUpLeg  -0.732359 4.11463 -4.55981
LeftLeg  14.4311 -30.4473 -9.93777
LeftFoot  -2.13811 -0.403033 5.16518
LeftToes  -7.45818e-011 -3.37383e-011 1.08613e-011
378
root  -7.54865 39.8726 10.4716 179.152 -43.7649 175.368
RightUpLeg  -4.76478 24.3164 -12.0603
RightLeg  46.1769 -4.44615 -5.26069
RightFoot  27.4367 -2.41554 7.41099
RightToes  -5.8209e-011 0 -3.6325e-017
Spine  -5.94609 0.919294 8.33777
Spine1  19.5539 -1.24218 2.15976
HEad  -3.89715 -25.8024 2.93509
LeftShoulder1  6.7991 -14.7441 -31.2343
LeftArm  9.48415 15.0239 -43.5542
LeftForeArm  39.3985 -62.3633 -17.7598
LeftHand  -0.246645 0.021 5.37786
RightShoulder  6.28264 13.7743 30.394
RightArm  33.3559 13.9218 53.9245
RightForeArm  32.4482 59.0644 15.8998
RightHand  -0.24729 -0.0210522 -5.37781
LeftUpLeg  -0.596425 4.43011 -4.16925
LeftLeg  14.0411 -28.0589 -9.35189
LeftFoot  -2.57815 -0.390991 5.30164
LeftToes  -7.45818e-011 -3.37383e-011 1.08613e-011
379
root  -7.46858 39.8847 10.5367 178.508 -40.7624 176.019
RightUpLeg  -5.12132 23.9639 -12.3814
RightLeg  45.5182 -4.95823 -5.6942
RightFoot  25.1495 -2.10925 6.93352
RightToes  -5.8209e-011 0 -3.6325e-017
Spine  -5.01702 0.879445 7.18096
Spine1  19.6559 -1.49183 3.04486
HEad  -3.66793 -25.3706 3.3952
LeftShoulder1  6.84074 -14.7786 -31.3926
LeftArm  8.91854 15.7472 -43.5645
LeftForeArm  38.7657 -60.9903 -16.6845
LeftHand  -0.246645 0.021 5.37786
RightShoulder  6.21653 13.6444 30.2834
RightArm  32.4895 12.9975 51.6165
RightForeArm  32.3308 58.6732 15.6344
RightHand  -0.24729 -0.0210522 -5.37781
LeftUpLeg  -0.475246 4.83179 -3.64261
LeftLeg  13.6955 -25.6308 -8.82675
LeftFoot  -3.08062 -0.358799 5.22195
LeftToes  -7.45818e-011 -3.37383e-011 1.08613e-011
380
root  -7.38188 39.9007 10.6202 178.016 -37.6106 176.554
RightUpLeg  -5.50047 23.469 -12.7912
RightLeg  44.6682 -5.53023 -6.12709
RightFoot  22.6739 -1.95643 6.91448
RightToes  -5.8209e-011 0 -3.6325e-017
Spine  -4.08186 0.928561 6.11638
Spine1  19.7888 -1.58175 3.70374
HEad  -3.42586 -24.9432 4.00664
LeftShoulder1  6.86592 -14.7746 -31.5399
LeftArm  7.9502 16.3336 -43.7671
LeftForeArm  37.6126 -59.3214 -15.5517
LeftHand  -0.246645 0.021 5.37786
RightShoulder  6.12975 13.4839 30.114
RightArm  31.4669 12.1807 49.3031
RightForeArm  33.1736 58.3096 15.2987
RightHand  -0.24729 -0.0210522 -5.37781
LeftUpLeg  -0.390391 5.18187 -3.1594
LeftLeg  13.2883 -23.0276 -8.29564
LeftFoot  -3.53148 -0.325238 5.07433
LeftToes  -7.45818e-011 -3.37383e-011 1.08613e-011
381
root  -7.29611 39.9182 10.7226 177.706 -34.4342 176.948
RightUpLeg  -5.91422 22.7269 -13.3334
RightLeg  43.6029 -6.11355 -6.49277
RightFoot  20.2029 -1.93433 7.34411
RightToes  -5.8209e-011 0 -3.6325e-017
Spine  -3.14412 0.964554 5.17945
Spine1  19.8449 -1.56657 3.99755
HEad  -2.94101 -24.5621 4.66594
LeftShoulder1  6.84606 -14.7154 -31.5536
LeftArm  6.92194 16.7968 -44.0329
LeftForeArm  35.8765 -57.5139 -14.5076
LeftHand  -0.246645 0.021 5.37786
RightShoulder  6.05587 13.3328 29.9989
RightArm  30.9807 11.6562 47.0053
RightForeArm  34.6698 57.9331 14.8996
RightHand  -0.24729 -0.0210522 -5.37781
LeftUpLeg  -0.370253 5.35181 -2.82319
LeftLeg  12.8278 -20.146 -7.67884
LeftFoot  -3.87211 -0.301541 4.97488
LeftToes  -7.45818e-011 -3.37383e-011 1.08613e-011
382
root  -7.21191 39.936 10.8378 177.469 -31.4149 177.237
RightUpLeg  -6.22838 21.5105 -13.9732
RightLeg  42.2578 -6.57924 -6.64682
RightFoot  17.9064 -1.9773 8.04751
RightToes  -5.8209e-011 0 -3.6325e-017
Spine  -2.07507 0.908207 4.31102
Spine1  19.7183 -1.5422 4.03775
HEad  -2.13655 -24.1622 5.31687
LeftShoulder1  6.79643 -14.6261 -31.4651
LeftArm  6.10918 17.1179 -44.1423
LeftForeArm  33.9292 -55.6276 -13.5491
LeftHand  -0.246645 0.021 5.37786
RightShoulder  6.03877 13.2601 30.0547
RightArm  31.3884 11.3951 44.6497
RightForeArm  35.3876 57.2594 14.3982
RightHand  -0.24729 -0.0210522 -5.37781
LeftUpLeg  -0.335108 5.36007 -2.62142
LeftLeg  12.3498 -17.2017 -6.97738
LeftFoot  -4.11245 -0.277337 4.78045
LeftToes  -7.45818e-011 -3.37383e-011 1.08613e-011
383
root  -7.11039 39.9544 10.9543 177.25 -28.3207 177.518
RightUpLeg  -6.55567 20.0174 -14.5676
RightLeg  40.7017 -6.82089 -6.52195
RightFoot  15.8123 -2.02308 8.8184
RightToes  -5.8209e-011 0 -3.6325e-017
Spine  -0.894055 0.917545 3.50696
Spine1  19.5042 -1.39001 3.93655
HEad  -1.14071 -23.7105 5.92507
LeftShoulder1  6.75674 -14.561 -31.3805
LeftArm  5.76846 17.1883 -43.881
LeftForeArm  31.9491 -53.678 -12.6587
LeftHand  -0.246645 0.021 5.37786
RightShoulder  6.07764 13.2828 30.2403
RightArm  32.4431 11.2507 42.3397
RightForeArm  34.669 56.151 13.791
RightHand  -0.24729 -0.0210522 -5.37781
LeftUpLeg  -0.291711 5.49091 -2.31896
LeftLeg  11.9125 -14.3646 -6.38975
LeftFoot  -4.31837 -0.245556 4.42407
LeftToes  -7.45818e-011 -3.37383e-011 1.08613e-011
